<svg width="47" height="21" viewBox="0 0 47 21" fill="none" xmlns="http://www.w3.org/2000/svg">
<path d="M16.3081 4.8042H13.2144V8H11.603V0.179688H16.6948V1.48486H13.2144V3.50439H16.3081V4.8042ZM23.5483 0.179688V5.33057C23.5483 6.18636 23.2798 6.86312 22.7427 7.36084C22.2091 7.85856 21.4787 8.10742 20.5513 8.10742C19.6382 8.10742 18.9131 7.86572 18.376 7.38232C17.8389 6.89893 17.5649 6.2347 17.5542 5.38965V0.179688H19.1655V5.34131C19.1655 5.85335 19.2873 6.22754 19.5308 6.46387C19.7778 6.69661 20.118 6.81299 20.5513 6.81299C21.4572 6.81299 21.9173 6.33675 21.9316 5.38428V0.179688H23.5483ZM26.481 6.70557H29.9023V8H24.8696V0.179688H26.481V6.70557ZM32.4429 6.70557H35.8643V8H30.8315V0.179688H32.4429V6.70557ZM3.57861 19.6304L5.81299 13.1797H6.94092L4.04053 21H3.12744L0.232422 13.1797H1.35498L3.57861 19.6304ZM9.1001 21H8.06885V13.1797H9.1001V21ZM15.4111 17.3853H12.022V20.1567H15.959V21H10.9907V13.1797H15.9053V14.0283H12.022V16.542H15.4111V17.3853ZM18.9292 18.5347L19.0796 19.5659L19.2998 18.6367L20.8467 13.1797H21.7168L23.2261 18.6367L23.4409 19.582L23.6074 18.5293L24.8213 13.1797H25.8579L23.9619 21H23.022L21.4106 15.3013L21.2871 14.7051L21.1636 15.3013L19.4932 21H18.5532L16.6626 13.1797H17.6938L18.9292 18.5347ZM31.0894 18.959H27.813L27.0771 21H26.0137L29 13.1797H29.9023L32.894 21H31.8359L31.0894 18.959ZM28.1245 18.1104H30.7832L29.4512 14.4526L28.1245 18.1104ZM34.978 17.9385V21H33.9468V13.1797H36.8311C37.6868 13.1797 38.3564 13.3981 38.8398 13.835C39.3268 14.2718 39.5703 14.8501 39.5703 15.5698C39.5703 16.3289 39.3322 16.9144 38.856 17.3262C38.3833 17.7344 37.7048 17.9385 36.8203 17.9385H34.978ZM34.978 17.0952H36.8311C37.3825 17.0952 37.805 16.9663 38.0986 16.7085C38.3923 16.4471 38.5391 16.0711 38.5391 15.5806C38.5391 15.1151 38.3923 14.7427 38.0986 14.4634C37.805 14.1841 37.4022 14.0391 36.8901 14.0283H34.978V17.0952ZM41.9175 17.9385V21H40.8862V13.1797H43.7705C44.6263 13.1797 45.2959 13.3981 45.7793 13.835C46.2663 14.2718 46.5098 14.8501 46.5098 15.5698C46.5098 16.3289 46.2716 16.9144 45.7954 17.3262C45.3228 17.7344 44.6442 17.9385 43.7598 17.9385H41.9175ZM41.9175 17.0952H43.7705C44.3219 17.0952 44.7445 16.9663 45.0381 16.7085C45.3317 16.4471 45.4785 16.0711 45.4785 15.5806C45.4785 15.1151 45.3317 14.7427 45.0381 14.4634C44.7445 14.1841 44.3416 14.0391 43.8296 14.0283H41.9175V17.0952Z" fill="black"/>
</svg>
