<svg width="48" height="44" viewBox="0 0 48 44" fill="none" xmlns="http://www.w3.org/2000/svg">
<path d="M5.18094 14.06C5.18094 14.74 5.26094 15.3533 5.42094 15.9C5.59427 16.4467 5.83427 16.92 6.14094 17.32C6.46094 17.7067 6.8476 18.0067 7.30094 18.22C7.75427 18.4333 8.27427 18.54 8.86094 18.54C9.43427 18.54 9.9476 18.4333 10.4009 18.22C10.8676 18.0067 11.2543 17.7067 11.5609 17.32C11.8809 16.92 12.1209 16.4467 12.2809 15.9C12.4543 15.3533 12.5409 14.74 12.5409 14.06C12.5409 13.38 12.4543 12.7667 12.2809 12.22C12.1209 11.66 11.8809 11.1867 11.5609 10.8C11.2543 10.4 10.8676 10.0933 10.4009 9.88C9.9476 9.66667 9.43427 9.56 8.86094 9.56C8.27427 9.56 7.75427 9.67333 7.30094 9.9C6.8476 10.1133 6.46094 10.42 6.14094 10.82C5.83427 11.2067 5.59427 11.68 5.42094 12.24C5.26094 12.7867 5.18094 13.3933 5.18094 14.06ZM15.7609 14.06C15.7609 15.2467 15.5809 16.2933 15.2209 17.2C14.8743 18.0933 14.3943 18.8467 13.7809 19.46C13.1676 20.06 12.4343 20.5133 11.5809 20.82C10.7409 21.1267 9.83427 21.28 8.86094 21.28C7.91427 21.28 7.02094 21.1267 6.18094 20.82C5.34094 20.5133 4.6076 20.06 3.98094 19.46C3.35427 18.8467 2.86094 18.0933 2.50094 17.2C2.14094 16.2933 1.96094 15.2467 1.96094 14.06C1.96094 12.8733 2.1476 11.8333 2.52094 10.94C2.89427 10.0333 3.39427 9.27333 4.02094 8.66C4.66094 8.04667 5.39427 7.58667 6.22094 7.28C7.06094 6.97333 7.94094 6.82 8.86094 6.82C9.8076 6.82 10.7009 6.97333 11.5409 7.28C12.3809 7.58667 13.1143 8.04667 13.7409 8.66C14.3676 9.27333 14.8609 10.0333 15.2209 10.94C15.5809 11.8333 15.7609 12.8733 15.7609 14.06ZM27.6617 21C26.7684 19.4133 25.8017 17.8467 24.7617 16.3C23.7217 14.7533 22.6151 13.2933 21.4417 11.92V21H18.3617V7.14H20.9017C21.3417 7.58 21.8284 8.12 22.3617 8.76C22.8951 9.4 23.4351 10.0867 23.9817 10.82C24.5417 11.54 25.0951 12.2933 25.6417 13.08C26.1884 13.8533 26.7017 14.6 27.1817 15.32V7.14H30.2817V21H27.6617Z" fill="#2BD828"/>
<path d="M37.5989 21C37.0522 19.84 36.5122 18.6333 35.9789 17.38C35.4456 16.1267 34.9389 14.8867 34.4589 13.66C33.9789 12.4333 33.5322 11.26 33.1189 10.14C32.7189 9.02 32.3722 8.02 32.0789 7.14H35.5189C35.7856 7.94 36.0722 8.80667 36.3789 9.74C36.6989 10.66 37.0189 11.58 37.3389 12.5C37.6722 13.42 37.9922 14.3 38.2989 15.14C38.6056 15.98 38.8922 16.7067 39.1589 17.32C39.4122 16.7067 39.6922 15.98 39.9989 15.14C40.3189 14.3 40.6389 13.42 40.9589 12.5C41.2922 11.58 41.6122 10.66 41.9189 9.74C42.2389 8.80667 42.5322 7.94 42.7989 7.14H46.1189C45.8122 8.02 45.4589 9.02 45.0589 10.14C44.6589 11.26 44.2189 12.4333 43.7389 13.66C43.2589 14.8867 42.7522 16.1267 42.2189 17.38C41.6856 18.6333 41.1456 19.84 40.5989 21H37.5989Z" fill="#FF4975"/>
<path d="M6.43931 37.24C5.66065 37.24 4.95131 37.112 4.31131 36.856C3.67131 36.6 3.12198 36.2267 2.66331 35.736C2.20465 35.2453 1.84731 34.6427 1.59131 33.928C1.34598 33.2027 1.22331 32.376 1.22331 31.448C1.22331 30.52 1.36198 29.6987 1.63931 28.984C1.92731 28.2587 2.31131 27.6507 2.79131 27.16C3.27131 26.6693 3.83131 26.296 4.47131 26.04C5.11131 25.784 5.79398 25.656 6.51931 25.656C6.97798 25.656 7.38865 25.688 7.75131 25.752C8.12465 25.816 8.44465 25.8907 8.71131 25.976C8.98865 26.0613 9.21265 26.1467 9.38331 26.232C9.55398 26.3173 9.67131 26.3813 9.73531 26.424L9.28731 27.704C9.19131 27.64 9.05265 27.5707 8.87131 27.496C8.68998 27.4213 8.48198 27.3467 8.24731 27.272C8.02331 27.1973 7.77265 27.1387 7.49531 27.096C7.22865 27.0427 6.95665 27.016 6.67931 27.016C6.09265 27.016 5.56465 27.1173 5.09531 27.32C4.62598 27.5227 4.22598 27.816 3.89531 28.2C3.56465 28.584 3.30865 29.0533 3.12731 29.608C2.95665 30.152 2.87131 30.7653 2.87131 31.448C2.87131 32.1093 2.94598 32.712 3.09531 33.256C3.25531 33.8 3.48998 34.2693 3.79931 34.664C4.10865 35.048 4.49265 35.3467 4.95131 35.56C5.42065 35.7733 5.96465 35.88 6.58331 35.88C7.29798 35.88 7.88998 35.8053 8.35931 35.656C8.82865 35.5067 9.18065 35.3733 9.41531 35.256L9.81531 36.536C9.74065 36.5893 9.60731 36.6587 9.41531 36.744C9.22331 36.8187 8.98331 36.8933 8.69531 36.968C8.40731 37.0427 8.07131 37.1067 7.68731 37.16C7.30331 37.2133 6.88731 37.24 6.43931 37.24ZM12.4327 31.448C12.4327 30.4987 12.5714 29.6613 12.8487 28.936C13.1367 28.2107 13.5207 27.608 14.0007 27.128C14.4914 26.6373 15.0567 26.2693 15.6967 26.024C16.3474 25.7787 17.0354 25.656 17.7607 25.656C18.4754 25.656 19.1474 25.7787 19.7767 26.024C20.4167 26.2693 20.9767 26.6373 21.4567 27.128C21.9367 27.608 22.3154 28.2107 22.5927 28.936C22.8807 29.6613 23.0247 30.4987 23.0247 31.448C23.0247 32.3973 22.8807 33.2347 22.5927 33.96C22.3154 34.6853 21.9367 35.2933 21.4567 35.784C20.9767 36.264 20.4167 36.6267 19.7767 36.872C19.1474 37.1173 18.4754 37.24 17.7607 37.24C17.0354 37.24 16.3474 37.1173 15.6967 36.872C15.0567 36.6267 14.4914 36.264 14.0007 35.784C13.5207 35.2933 13.1367 34.6853 12.8487 33.96C12.5714 33.2347 12.4327 32.3973 12.4327 31.448ZM14.0647 31.448C14.0647 32.12 14.15 32.7333 14.3207 33.288C14.4914 33.832 14.7314 34.296 15.0407 34.68C15.3607 35.064 15.7447 35.3627 16.1927 35.576C16.6514 35.7787 17.1634 35.88 17.7287 35.88C18.294 35.88 18.8007 35.7787 19.2487 35.576C19.6967 35.3627 20.0754 35.064 20.3847 34.68C20.7047 34.296 20.95 33.832 21.1207 33.288C21.2914 32.7333 21.3767 32.12 21.3767 31.448C21.3767 30.776 21.2914 30.168 21.1207 29.624C20.95 29.0693 20.7047 28.6 20.3847 28.216C20.0754 27.832 19.6967 27.5387 19.2487 27.336C18.8007 27.1227 18.294 27.016 17.7287 27.016C17.1634 27.016 16.6514 27.1227 16.1927 27.336C15.7447 27.5387 15.3607 27.832 15.0407 28.216C14.7314 28.6 14.4914 29.0693 14.3207 29.624C14.15 30.168 14.0647 30.776 14.0647 31.448ZM36.0378 31.448C36.0378 32.408 35.8885 33.2453 35.5898 33.96C35.2911 34.664 34.8698 35.2507 34.3258 35.72C33.7818 36.1787 33.1311 36.5253 32.3738 36.76C31.6165 36.984 30.7845 37.096 29.8778 37.096C29.4298 37.096 28.9338 37.0747 28.3898 37.032C27.8565 37 27.3711 36.9307 26.9338 36.824V26.072C27.3711 25.9653 27.8565 25.896 28.3898 25.864C28.9338 25.8213 29.4298 25.8 29.8778 25.8C30.7845 25.8 31.6165 25.9173 32.3738 26.152C33.1311 26.376 33.7818 26.7227 34.3258 27.192C34.8698 27.6507 35.2911 28.2373 35.5898 28.952C35.8885 29.656 36.0378 30.488 36.0378 31.448ZM30.0058 35.736C31.4778 35.736 32.5765 35.3627 33.3018 34.616C34.0271 33.8587 34.3898 32.8027 34.3898 31.448C34.3898 30.0933 34.0271 29.0427 33.3018 28.296C32.5765 27.5387 31.4778 27.16 30.0058 27.16C29.5685 27.16 29.2271 27.1653 28.9818 27.176C28.7471 27.1867 28.5818 27.1973 28.4858 27.208V35.688C28.5818 35.6987 28.7471 35.7093 28.9818 35.72C29.2271 35.7307 29.5685 35.736 30.0058 35.736ZM39.9401 37V25.912H46.7081V27.24H41.4921V30.536H46.1321V31.832H41.4921V35.672H47.1081V37H39.9401Z" fill="white"/>
</svg>
