<svg width="38" height="36" viewBox="0 0 38 36" fill="none" xmlns="http://www.w3.org/2000/svg">
<path d="M4.954 10.142C4.954 10.618 5.01 11.0473 5.122 11.43C5.24333 11.8127 5.41133 12.144 5.626 12.424C5.85 12.6947 6.12067 12.9047 6.438 13.054C6.75533 13.2033 7.11933 13.278 7.53 13.278C7.93133 13.278 8.29067 13.2033 8.608 13.054C8.93467 12.9047 9.20533 12.6947 9.42 12.424C9.644 12.144 9.812 11.8127 9.924 11.43C10.0453 11.0473 10.106 10.618 10.106 10.142C10.106 9.666 10.0453 9.23667 9.924 8.854C9.812 8.462 9.644 8.13067 9.42 7.86C9.20533 7.58 8.93467 7.36533 8.608 7.216C8.29067 7.06667 7.93133 6.992 7.53 6.992C7.11933 6.992 6.75533 7.07133 6.438 7.23C6.12067 7.37933 5.85 7.594 5.626 7.874C5.41133 8.14467 5.24333 8.476 5.122 8.868C5.01 9.25067 4.954 9.67533 4.954 10.142ZM12.36 10.142C12.36 10.9727 12.234 11.7053 11.982 12.34C11.7393 12.9653 11.4033 13.4927 10.974 13.922C10.5447 14.342 10.0313 14.6593 9.434 14.874C8.846 15.0887 8.21133 15.196 7.53 15.196C6.86733 15.196 6.242 15.0887 5.654 14.874C5.066 14.6593 4.55267 14.342 4.114 13.922C3.67533 13.4927 3.33 12.9653 3.078 12.34C2.826 11.7053 2.7 10.9727 2.7 10.142C2.7 9.31133 2.83067 8.58333 3.092 7.958C3.35333 7.32333 3.70333 6.79133 4.142 6.362C4.59 5.93267 5.10333 5.61067 5.682 5.396C6.27 5.18133 6.886 5.074 7.53 5.074C8.19267 5.074 8.818 5.18133 9.406 5.396C9.994 5.61067 10.5073 5.93267 10.946 6.362C11.3847 6.79133 11.73 7.32333 11.982 7.958C12.234 8.58333 12.36 9.31133 12.36 10.142ZM20.6905 15C20.0652 13.8893 19.3885 12.7927 18.6605 11.71C17.9325 10.6273 17.1579 9.60533 16.3365 8.644V15H14.1805V5.298H15.9585C16.2665 5.606 16.6072 5.984 16.9805 6.432C17.3539 6.88 17.7319 7.36067 18.1145 7.874C18.5065 8.378 18.8939 8.90533 19.2765 9.456C19.6592 9.99733 20.0185 10.52 20.3545 11.024V5.298H22.5245V15H20.6905Z" fill="#2BD828"/>
<path d="M27.6466 15C27.2639 14.188 26.8859 13.3433 26.5126 12.466C26.1392 11.5887 25.7846 10.7207 25.4486 9.862C25.1126 9.00333 24.7999 8.182 24.5106 7.398C24.2306 6.614 23.9879 5.914 23.7826 5.298H26.1906C26.3772 5.858 26.5779 6.46467 26.7926 7.118C27.0166 7.762 27.2406 8.406 27.4646 9.05C27.6979 9.694 27.9219 10.31 28.1366 10.898C28.3512 11.486 28.5519 11.9947 28.7386 12.424C28.9159 11.9947 29.1119 11.486 29.3266 10.898C29.5506 10.31 29.7746 9.694 29.9986 9.05C30.2319 8.406 30.4559 7.762 30.6706 7.118C30.8946 6.46467 31.0999 5.858 31.2866 5.298H33.6106C33.3959 5.914 33.1486 6.614 32.8686 7.398C32.5886 8.182 32.2806 9.00333 31.9446 9.862C31.6086 10.7207 31.2539 11.5887 30.8806 12.466C30.5072 13.3433 30.1292 14.188 29.7466 15H27.6466Z" fill="#FF4975"/>
<path d="M4.82949 28.18C4.24549 28.18 3.71349 28.084 3.23349 27.892C2.75349 27.7 2.34149 27.42 1.99749 27.052C1.65349 26.684 1.38549 26.232 1.19349 25.696C1.00949 25.152 0.917485 24.532 0.917485 23.836C0.917485 23.14 1.02149 22.524 1.22949 21.988C1.44549 21.444 1.73349 20.988 2.09349 20.62C2.45349 20.252 2.87349 19.972 3.35349 19.78C3.83349 19.588 4.34549 19.492 4.88949 19.492C5.23349 19.492 5.54149 19.516 5.81349 19.564C6.09349 19.612 6.33349 19.668 6.53349 19.732C6.74149 19.796 6.90949 19.86 7.03749 19.924C7.16549 19.988 7.25349 20.036 7.30149 20.068L6.96549 21.028C6.89349 20.98 6.78949 20.928 6.65349 20.872C6.51749 20.816 6.36149 20.76 6.18549 20.704C6.01749 20.648 5.82949 20.604 5.62149 20.572C5.42149 20.532 5.21749 20.512 5.00949 20.512C4.56949 20.512 4.17349 20.588 3.82149 20.74C3.46949 20.892 3.16949 21.112 2.92149 21.4C2.67349 21.688 2.48149 22.04 2.34549 22.456C2.21749 22.864 2.15349 23.324 2.15349 23.836C2.15349 24.332 2.20949 24.784 2.32149 25.192C2.44149 25.6 2.61749 25.952 2.84949 26.248C3.08149 26.536 3.36949 26.76 3.71349 26.92C4.06549 27.08 4.47349 27.16 4.93749 27.16C5.47349 27.16 5.91749 27.104 6.26949 26.992C6.62149 26.88 6.88549 26.78 7.06149 26.692L7.36149 27.652C7.30549 27.692 7.20549 27.744 7.06149 27.808C6.91749 27.864 6.73749 27.92 6.52149 27.976C6.30549 28.032 6.05349 28.08 5.76549 28.12C5.47749 28.16 5.16549 28.18 4.82949 28.18ZM9.32452 23.836C9.32452 23.124 9.42852 22.496 9.63652 21.952C9.85252 21.408 10.1405 20.956 10.5005 20.596C10.8685 20.228 11.2925 19.952 11.7725 19.768C12.2605 19.584 12.7765 19.492 13.3205 19.492C13.8565 19.492 14.3605 19.584 14.8325 19.768C15.3125 19.952 15.7325 20.228 16.0925 20.596C16.4525 20.956 16.7365 21.408 16.9445 21.952C17.1605 22.496 17.2685 23.124 17.2685 23.836C17.2685 24.548 17.1605 25.176 16.9445 25.72C16.7365 26.264 16.4525 26.72 16.0925 27.088C15.7325 27.448 15.3125 27.72 14.8325 27.904C14.3605 28.088 13.8565 28.18 13.3205 28.18C12.7765 28.18 12.2605 28.088 11.7725 27.904C11.2925 27.72 10.8685 27.448 10.5005 27.088C10.1405 26.72 9.85252 26.264 9.63652 25.72C9.42852 25.176 9.32452 24.548 9.32452 23.836ZM10.5485 23.836C10.5485 24.34 10.6125 24.8 10.7405 25.216C10.8685 25.624 11.0485 25.972 11.2805 26.26C11.5205 26.548 11.8085 26.772 12.1445 26.932C12.4885 27.084 12.8725 27.16 13.2965 27.16C13.7205 27.16 14.1005 27.084 14.4365 26.932C14.7725 26.772 15.0565 26.548 15.2885 26.26C15.5285 25.972 15.7125 25.624 15.8405 25.216C15.9685 24.8 16.0325 24.34 16.0325 23.836C16.0325 23.332 15.9685 22.876 15.8405 22.468C15.7125 22.052 15.5285 21.7 15.2885 21.412C15.0565 21.124 14.7725 20.904 14.4365 20.752C14.1005 20.592 13.7205 20.512 13.2965 20.512C12.8725 20.512 12.4885 20.592 12.1445 20.752C11.8085 20.904 11.5205 21.124 11.2805 21.412C11.0485 21.7 10.8685 22.052 10.7405 22.468C10.6125 22.876 10.5485 23.332 10.5485 23.836ZM27.0284 23.836C27.0284 24.556 26.9164 25.184 26.6924 25.72C26.4684 26.248 26.1524 26.688 25.7444 27.04C25.3364 27.384 24.8484 27.644 24.2804 27.82C23.7124 27.988 23.0884 28.072 22.4084 28.072C22.0724 28.072 21.7004 28.056 21.2924 28.024C20.8924 28 20.5284 27.948 20.2004 27.868V19.804C20.5284 19.724 20.8924 19.672 21.2924 19.648C21.7004 19.616 22.0724 19.6 22.4084 19.6C23.0884 19.6 23.7124 19.688 24.2804 19.864C24.8484 20.032 25.3364 20.292 25.7444 20.644C26.1524 20.988 26.4684 21.428 26.6924 21.964C26.9164 22.492 27.0284 23.116 27.0284 23.836ZM22.5044 27.052C23.6084 27.052 24.4324 26.772 24.9764 26.212C25.5204 25.644 25.7924 24.852 25.7924 23.836C25.7924 22.82 25.5204 22.032 24.9764 21.472C24.4324 20.904 23.6084 20.62 22.5044 20.62C22.1764 20.62 21.9204 20.624 21.7364 20.632C21.5604 20.64 21.4364 20.648 21.3644 20.656V27.016C21.4364 27.024 21.5604 27.032 21.7364 27.04C21.9204 27.048 22.1764 27.052 22.5044 27.052ZM29.955 28V19.684H35.031V20.68H31.119V23.152H34.599V24.124H31.119V27.004H35.331V28H29.955Z" fill="white"/>
</svg>
