<svg width="94" height="40" viewBox="0 0 94 40" fill="none" xmlns="http://www.w3.org/2000/svg">
<path d="M13.7232 37.0452C13.1392 37.0452 12.6072 36.9492 12.1272 36.7572C11.6472 36.5652 11.2352 36.2852 10.8912 35.9172C10.5472 35.5492 10.2792 35.0972 10.0872 34.5612C9.90323 34.0172 9.81123 33.3972 9.81123 32.7012C9.81123 32.0052 9.91523 31.3892 10.1232 30.8532C10.3392 30.3092 10.6272 29.8532 10.9872 29.4852C11.3472 29.1172 11.7672 28.8372 12.2472 28.6452C12.7272 28.4532 13.2392 28.3572 13.7832 28.3572C14.1272 28.3572 14.4352 28.3812 14.7072 28.4292C14.9872 28.4772 15.2272 28.5332 15.4272 28.5972C15.6352 28.6612 15.8032 28.7252 15.9312 28.7892C16.0592 28.8532 16.1472 28.9012 16.1952 28.9332L15.8592 29.8932C15.7872 29.8452 15.6832 29.7932 15.5472 29.7372C15.4112 29.6812 15.2552 29.6252 15.0792 29.5692C14.9112 29.5132 14.7232 29.4692 14.5152 29.4372C14.3152 29.3972 14.1112 29.3772 13.9032 29.3772C13.4632 29.3772 13.0672 29.4532 12.7152 29.6052C12.3632 29.7572 12.0632 29.9772 11.8152 30.2652C11.5672 30.5532 11.3752 30.9052 11.2392 31.3212C11.1112 31.7292 11.0472 32.1892 11.0472 32.7012C11.0472 33.1972 11.1032 33.6492 11.2152 34.0572C11.3352 34.4652 11.5112 34.8172 11.7432 35.1132C11.9752 35.4012 12.2632 35.6252 12.6072 35.7852C12.9592 35.9452 13.3672 36.0252 13.8312 36.0252C14.3672 36.0252 14.8112 35.9692 15.1632 35.8572C15.5152 35.7452 15.7792 35.6452 15.9552 35.5572L16.2552 36.5172C16.1992 36.5572 16.0992 36.6092 15.9552 36.6732C15.8112 36.7292 15.6312 36.7852 15.4152 36.8412C15.1992 36.8972 14.9472 36.9452 14.6592 36.9852C14.3712 37.0252 14.0592 37.0452 13.7232 37.0452ZM30.7583 32.7012C30.7583 31.9892 30.8623 31.3612 31.0703 30.8172C31.2863 30.2732 31.5743 29.8212 31.9343 29.4612C32.3023 29.0932 32.7263 28.8172 33.2063 28.6332C33.6943 28.4492 34.2103 28.3572 34.7543 28.3572C35.2903 28.3572 35.7943 28.4492 36.2663 28.6332C36.7463 28.8172 37.1663 29.0932 37.5263 29.4612C37.8863 29.8212 38.1703 30.2732 38.3783 30.8172C38.5943 31.3612 38.7023 31.9892 38.7023 32.7012C38.7023 33.4132 38.5943 34.0412 38.3783 34.5852C38.1703 35.1292 37.8863 35.5852 37.5263 35.9532C37.1663 36.3132 36.7463 36.5852 36.2663 36.7692C35.7943 36.9532 35.2903 37.0452 34.7543 37.0452C34.2103 37.0452 33.6943 36.9532 33.2063 36.7692C32.7263 36.5852 32.3023 36.3132 31.9343 35.9532C31.5743 35.5852 31.2863 35.1292 31.0703 34.5852C30.8623 34.0412 30.7583 33.4132 30.7583 32.7012ZM31.9823 32.7012C31.9823 33.2052 32.0463 33.6652 32.1743 34.0812C32.3023 34.4892 32.4823 34.8372 32.7143 35.1252C32.9543 35.4132 33.2423 35.6372 33.5783 35.7972C33.9223 35.9492 34.3063 36.0252 34.7303 36.0252C35.1543 36.0252 35.5343 35.9492 35.8703 35.7972C36.2063 35.6372 36.4903 35.4132 36.7223 35.1252C36.9623 34.8372 37.1463 34.4892 37.2743 34.0812C37.4023 33.6652 37.4663 33.2052 37.4663 32.7012C37.4663 32.1972 37.4023 31.7412 37.2743 31.3332C37.1463 30.9172 36.9623 30.5652 36.7223 30.2772C36.4903 29.9892 36.2063 29.7692 35.8703 29.6172C35.5343 29.4572 35.1543 29.3772 34.7303 29.3772C34.3063 29.3772 33.9223 29.4572 33.5783 29.6172C33.2423 29.7692 32.9543 29.9892 32.7143 30.2772C32.4823 30.5652 32.3023 30.9172 32.1743 31.3332C32.0463 31.7412 31.9823 32.1972 31.9823 32.7012ZM61.0021 32.7012C61.0021 33.4212 60.8901 34.0492 60.6661 34.5852C60.4421 35.1132 60.1261 35.5532 59.7181 35.9052C59.3101 36.2492 58.8221 36.5092 58.2541 36.6852C57.6861 36.8532 57.0621 36.9372 56.3821 36.9372C56.0461 36.9372 55.6741 36.9212 55.2661 36.8892C54.8661 36.8652 54.5021 36.8132 54.1741 36.7332V28.6692C54.5021 28.5892 54.8661 28.5372 55.2661 28.5132C55.6741 28.4812 56.0461 28.4652 56.3821 28.4652C57.0621 28.4652 57.6861 28.5532 58.2541 28.7292C58.8221 28.8972 59.3101 29.1572 59.7181 29.5092C60.1261 29.8532 60.4421 30.2932 60.6661 30.8292C60.8901 31.3572 61.0021 31.9812 61.0021 32.7012ZM56.4781 35.9172C57.5821 35.9172 58.4061 35.6372 58.9501 35.0772C59.4941 34.5092 59.7661 33.7172 59.7661 32.7012C59.7661 31.6852 59.4941 30.8972 58.9501 30.3372C58.4061 29.7692 57.5821 29.4852 56.4781 29.4852C56.1501 29.4852 55.8941 29.4892 55.7101 29.4972C55.5341 29.5052 55.4101 29.5132 55.3381 29.5212V35.8812C55.4101 35.8892 55.5341 35.8972 55.7101 35.9052C55.8941 35.9132 56.1501 35.9172 56.4781 35.9172ZM76.4688 36.8652V28.5492H81.5448V29.5452H77.6328V32.0172H81.1128V32.9892H77.6328V35.8692H81.8448V36.8652H76.4688Z" fill="white"/>
<path d="M4.22 14.06C4.22 14.74 4.3 15.3533 4.46 15.9C4.63333 16.4467 4.87333 16.92 5.18 17.32C5.5 17.7067 5.88667 18.0067 6.34 18.22C6.79333 18.4333 7.31333 18.54 7.9 18.54C8.47333 18.54 8.98667 18.4333 9.44 18.22C9.90667 18.0067 10.2933 17.7067 10.6 17.32C10.92 16.92 11.16 16.4467 11.32 15.9C11.4933 15.3533 11.58 14.74 11.58 14.06C11.58 13.38 11.4933 12.7667 11.32 12.22C11.16 11.66 10.92 11.1867 10.6 10.8C10.2933 10.4 9.90667 10.0933 9.44 9.88C8.98667 9.66667 8.47333 9.56 7.9 9.56C7.31333 9.56 6.79333 9.67333 6.34 9.9C5.88667 10.1133 5.5 10.42 5.18 10.82C4.87333 11.2067 4.63333 11.68 4.46 12.24C4.3 12.7867 4.22 13.3933 4.22 14.06ZM14.8 14.06C14.8 15.2467 14.62 16.2933 14.26 17.2C13.9133 18.0933 13.4333 18.8467 12.82 19.46C12.2067 20.06 11.4733 20.5133 10.62 20.82C9.78 21.1267 8.87333 21.28 7.9 21.28C6.95333 21.28 6.06 21.1267 5.22 20.82C4.38 20.5133 3.64667 20.06 3.02 19.46C2.39333 18.8467 1.9 18.0933 1.54 17.2C1.18 16.2933 1 15.2467 1 14.06C1 12.8733 1.18667 11.8333 1.56 10.94C1.93333 10.0333 2.43333 9.27333 3.06 8.66C3.7 8.04667 4.43333 7.58667 5.26 7.28C6.1 6.97333 6.98 6.82 7.9 6.82C8.84667 6.82 9.74 6.97333 10.58 7.28C11.42 7.58667 12.1533 8.04667 12.78 8.66C13.4067 9.27333 13.9 10.0333 14.26 10.94C14.62 11.8333 14.8 12.8733 14.8 14.06ZM26.7008 21C25.8074 19.4133 24.8408 17.8467 23.8008 16.3C22.7608 14.7533 21.6541 13.2933 20.4808 11.92V21H17.4008V7.14H19.9408C20.3808 7.58 20.8674 8.12 21.4008 8.76C21.9341 9.4 22.4741 10.0867 23.0208 10.82C23.5808 11.54 24.1341 12.2933 24.6808 13.08C25.2274 13.8533 25.7408 14.6 26.2208 15.32V7.14H29.3208V21H26.7008Z" fill="#2BD828"/>
<path d="M36.638 21C36.0913 19.84 35.5513 18.6333 35.018 17.38C34.4846 16.1267 33.978 14.8867 33.498 13.66C33.018 12.4333 32.5713 11.26 32.158 10.14C31.758 9.02 31.4113 8.02 31.118 7.14H34.558C34.8246 7.94 35.1113 8.80667 35.418 9.74C35.738 10.66 36.058 11.58 36.378 12.5C36.7113 13.42 37.0313 14.3 37.338 15.14C37.6446 15.98 37.9313 16.7067 38.198 17.32C38.4513 16.7067 38.7313 15.98 39.038 15.14C39.358 14.3 39.678 13.42 39.998 12.5C40.3313 11.58 40.6513 10.66 40.958 9.74C41.278 8.80667 41.5713 7.94 41.838 7.14H45.158C44.8513 8.02 44.498 9.02 44.098 10.14C43.698 11.26 43.258 12.4333 42.778 13.66C42.298 14.8867 41.7913 16.1267 41.258 17.38C40.7246 18.6333 40.1846 19.84 39.638 21H36.638ZM46.9516 7.14H50.0716V21H46.9516V7.14ZM57.3397 6.98C59.4197 6.98 61.013 7.35333 62.1197 8.1C63.2264 8.83333 63.7797 9.98 63.7797 11.54C63.7797 12.5133 63.553 13.3067 63.0997 13.92C62.6597 14.52 62.0197 14.9933 61.1797 15.34C61.4597 15.6867 61.753 16.0867 62.0597 16.54C62.3664 16.98 62.6664 17.4467 62.9597 17.94C63.2664 18.42 63.5597 18.9267 63.8397 19.46C64.1197 19.98 64.3797 20.4933 64.6197 21H61.1197C60.8664 20.5467 60.6064 20.0867 60.3397 19.62C60.0864 19.1533 59.8197 18.7 59.5397 18.26C59.273 17.82 59.0064 17.4067 58.7397 17.02C58.473 16.62 58.2064 16.26 57.9397 15.94H56.3997V21H53.2797V7.34C53.9597 7.20667 54.6597 7.11333 55.3797 7.06C56.113 7.00667 56.7664 6.98 57.3397 6.98ZM57.5197 9.64C57.293 9.64 57.0864 9.64667 56.8997 9.66C56.7264 9.67333 56.5597 9.68667 56.3997 9.7V13.46H57.2797C58.453 13.46 59.293 13.3133 59.7997 13.02C60.3064 12.7267 60.5597 12.2267 60.5597 11.52C60.5597 10.84 60.2997 10.36 59.7797 10.08C59.273 9.78667 58.5197 9.64 57.5197 9.64ZM71.8833 21.28C70.9099 21.28 70.0699 21.1467 69.3633 20.88C68.6566 20.6 68.0699 20.22 67.6033 19.74C67.1499 19.2467 66.8099 18.6667 66.5833 18C66.3699 17.32 66.2633 16.5733 66.2633 15.76V7.14H69.3833V15.5C69.3833 16.06 69.4433 16.54 69.5633 16.94C69.6966 17.3267 69.8699 17.6467 70.0833 17.9C70.3099 18.14 70.5766 18.3133 70.8833 18.42C71.2033 18.5267 71.5499 18.58 71.9233 18.58C72.6833 18.58 73.2966 18.3467 73.7633 17.88C74.2433 17.4133 74.4833 16.62 74.4833 15.5V7.14H77.6033V15.76C77.6033 16.5733 77.4899 17.32 77.2633 18C77.0366 18.68 76.6899 19.2667 76.2233 19.76C75.7566 20.24 75.1633 20.6133 74.4433 20.88C73.7233 21.1467 72.8699 21.28 71.8833 21.28ZM84.3839 18.62C84.8239 18.62 85.1839 18.5867 85.4639 18.52C85.7572 18.44 85.9906 18.34 86.1639 18.22C86.3372 18.0867 86.4572 17.9333 86.5239 17.76C86.5906 17.5867 86.6239 17.3933 86.6239 17.18C86.6239 16.7267 86.4106 16.3533 85.9839 16.06C85.5572 15.7533 84.8239 15.4267 83.7839 15.08C83.3306 14.92 82.8772 14.74 82.4239 14.54C81.9706 14.3267 81.5639 14.0667 81.2039 13.76C80.8439 13.44 80.5506 13.06 80.3239 12.62C80.0972 12.1667 79.9839 11.62 79.9839 10.98C79.9839 10.34 80.1039 9.76667 80.3439 9.26C80.5839 8.74 80.9239 8.3 81.3639 7.94C81.8039 7.58 82.3372 7.30667 82.9639 7.12C83.5906 6.92 84.2972 6.82 85.0839 6.82C86.0172 6.82 86.8239 6.92 87.5039 7.12C88.1839 7.32 88.7439 7.54 89.1839 7.78L88.2839 10.24C87.8972 10.04 87.4639 9.86667 86.9839 9.72C86.5172 9.56 85.9506 9.48 85.2839 9.48C84.5372 9.48 83.9972 9.58667 83.6639 9.8C83.3439 10 83.1839 10.3133 83.1839 10.74C83.1839 10.9933 83.2439 11.2067 83.3639 11.38C83.4839 11.5533 83.6506 11.7133 83.8639 11.86C84.0906 11.9933 84.3439 12.12 84.6239 12.24C84.9172 12.3467 85.2372 12.46 85.5839 12.58C86.3039 12.8467 86.9306 13.1133 87.4639 13.38C87.9972 13.6333 88.4372 13.9333 88.7839 14.28C89.1439 14.6267 89.4106 15.0333 89.5839 15.5C89.7572 15.9667 89.8439 16.5333 89.8439 17.2C89.8439 18.4933 89.3906 19.5 88.4839 20.22C87.5772 20.9267 86.2106 21.28 84.3839 21.28C83.7706 21.28 83.2172 21.24 82.7239 21.16C82.2306 21.0933 81.7906 21.0067 81.4039 20.9C81.0306 20.7933 80.7039 20.68 80.4239 20.56C80.1572 20.44 79.9306 20.3267 79.7439 20.22L80.6239 17.74C81.0372 17.9667 81.5439 18.1733 82.1439 18.36C82.7572 18.5333 83.5039 18.62 84.3839 18.62Z" fill="#FF4975"/>
</svg>
